<svg width="156" height="118" viewBox="0 0 156 118" fill="none" xmlns="http://www.w3.org/2000/svg">
<path opacity="0.2" fill-rule="evenodd" clip-rule="evenodd" d="M101.478 118H103.667C107.953 115.73 112.06 113.132 115.95 110.229C116.011 110.323 116.072 110.416 116.131 110.51C115.609 110.92 115.108 111.358 114.632 111.821C114.543 111.873 114.47 111.947 114.418 112.037C114.366 112.126 114.338 112.227 114.336 112.33C114.334 112.433 114.359 112.535 114.407 112.626C114.456 112.717 114.526 112.795 114.613 112.85C116.157 114.265 118.032 115.263 120.064 115.753C126.073 117.157 131.174 115.097 135.793 111.446C136.389 110.978 136.96 110.416 137.523 109.948C137.685 109.851 137.819 109.713 137.914 109.55C138.009 109.386 138.061 109.201 138.066 109.012C137.973 108.829 137.821 108.683 137.635 108.598C137.448 108.513 137.239 108.494 137.041 108.544C135.729 108.233 134.398 108.014 133.056 107.888C131.038 107.593 129.002 107.437 126.962 107.42C123.607 107.701 120.177 107.888 117.161 109.761C116.974 109.859 116.771 109.923 116.562 109.948C135.547 93.8439 144.742 73.6191 142.949 48.8072C141.979 35.4181 136.995 23.4339 128.872 12.6665C128.802 12.7134 128.746 12.7773 128.707 12.8521C128.669 12.9268 128.65 13.0103 128.652 13.0944C128.654 13.1784 128.678 13.2604 128.72 13.333C128.762 13.4056 128.822 13.4664 128.894 13.5095C131.101 16.6583 133.057 19.9765 134.745 23.4339C136.648 27.3996 138.172 31.538 139.297 35.7932C140.328 39.847 141.014 43.9818 141.347 48.1525C141.604 50.7031 141.682 53.2678 141.582 55.8294C141.334 61.9184 140.353 67.9549 138.659 73.8065C136.603 80.3626 133.595 86.578 129.733 92.2518C128.477 94.3113 126.962 96.1995 125.226 97.8696C125.172 98.1574 125.028 98.42 124.814 98.6184C119.738 104.559 113.616 109.511 106.755 113.225C105.143 114.153 103.484 114.996 101.785 115.753C101.618 115.784 101.462 115.86 101.334 115.972C101.205 116.084 101.108 116.228 101.053 116.39C100.997 116.551 100.985 116.725 101.018 116.893C101.051 117.06 101.127 117.216 101.239 117.344C101.398 117.525 101.483 117.759 101.478 118ZM125.228 97.8696C126.071 96.3461 126.551 94.6481 126.633 92.9074V92.8132C126.639 92.7196 126.643 92.5323 126.644 92.3451C126.642 92.3139 126.642 92.283 126.644 92.2518C126.644 92.1582 126.644 91.9706 126.635 91.8769C126.625 91.7833 126.635 91.784 126.628 91.6904C126.622 91.5968 126.613 91.4091 126.602 91.3155C126.591 91.2219 126.589 91.2217 126.584 91.1281C126.58 91.0344 126.562 90.9414 126.547 90.7541C126.536 90.6605 126.521 90.5661 126.508 90.4725C126.495 90.3788 126.485 90.3796 126.471 90.2859C126.441 90.0987 126.408 89.9109 126.372 89.7236C125.611 86.196 123.883 82.9527 121.383 80.3606C120.968 79.8925 120.76 80.0799 120.472 80.5481C120.067 81.2113 119.778 81.9396 119.618 82.7014C118.799 85.4889 118.589 88.4216 119.003 91.2981C119.417 94.1747 120.444 96.927 122.016 99.3673C122.061 99.4883 122.135 99.5962 122.232 99.6809C122.328 99.7657 122.445 99.8249 122.57 99.8528C122.696 99.8808 122.826 99.8766 122.949 99.8409C123.073 99.8052 123.185 99.7396 123.277 99.6489C123.446 99.4617 123.61 99.368 123.775 99.1808C123.806 99.1808 123.837 99.1802 123.868 99.0866C124.344 98.708 124.798 98.3018 125.228 97.8696H125.228ZM111.469 108.169C111.841 109.199 112.239 109.386 113.184 108.824C116.175 107.139 117.547 104.424 117.786 101.053C118.044 97.1293 117.13 93.2172 115.162 89.8178C114.388 88.4133 114.167 88.3192 113.327 89.7236C111.159 93.1238 110.085 97.1121 110.251 101.147C110.161 103.547 110.576 105.94 111.469 108.169ZM133.948 27.4598C130.847 25.6345 127.237 24.8784 123.668 25.3065C122.726 25.3065 122.535 25.6808 123.038 26.5235C125.927 31.2986 130.036 34.1075 135.701 34.482C135.993 34.482 136.286 34.5762 136.573 34.5762C137.505 34.7635 137.866 34.2946 137.772 33.3583C137.681 32.131 137.283 30.947 136.614 29.9157C135.946 28.8845 135.029 28.0397 133.948 27.4598ZM137.456 39.9124C135.067 37.9102 132.137 36.6713 129.042 36.3546C128.969 36.3546 128.895 36.2613 128.827 36.2613C128.215 36.0741 127.483 35.6054 126.995 36.1672C126.524 36.729 127.125 37.478 127.361 38.0398C128.341 40.4368 129.845 42.5817 131.762 44.3159C133.679 46.05 135.959 47.3292 138.435 48.0583C140.194 48.6201 140.782 48.1523 140.806 46.0925C140.7 44.8866 140.348 43.715 139.772 42.6518C139.195 41.5886 138.407 40.656 137.456 39.9124ZM140.47 61.9154C140.756 61.0972 140.949 60.2498 141.045 59.3881C140.748 56.3286 139.273 53.5064 136.935 51.5228C134.956 49.7107 132.577 48.3956 129.995 47.6844C128.795 47.3099 128.521 47.4964 128.755 48.8072C129.235 51.7311 130.414 54.4949 132.191 56.8599C134.003 59.2668 136.37 61.1948 139.088 62.4777C139.846 62.8522 140.163 62.758 140.47 61.9154ZM126.427 70.6237C125.655 69.9683 125.402 70.3428 125.252 71.0918C124.852 72.3941 124.684 73.7569 124.757 75.1177C124.818 79.9691 126.702 84.6175 130.032 88.1317C130.923 89.068 131.12 89.0684 131.888 88.0385C133.984 85.4168 134.074 82.4209 132.94 79.3311C131.674 75.8454 129.407 72.8153 126.427 70.6237ZM135.686 75.8666C136.721 76.7093 137.007 76.6156 137.592 75.3984C138.158 74.3381 138.47 73.1601 138.505 71.9577C138.539 70.7553 138.295 69.5609 137.792 68.4695C136.143 64.5931 133.168 61.4378 129.404 59.5746C128.34 59.0128 128.122 59.1068 128.075 60.4177C128.061 60.6986 128.075 61.0727 128.075 61.4472C128.589 67.3459 130.856 72.3086 135.686 75.8666ZM128.863 22.3101C129.703 22.2948 130.541 22.2321 131.373 22.1227C131.545 22.0975 131.709 22.0311 131.85 21.9289C131.991 21.8266 132.106 21.6919 132.184 21.5357C132.262 21.3795 132.302 21.2067 132.3 21.0319C132.298 20.857 132.253 20.6857 132.171 20.5317C131.792 19.3185 131.125 18.2157 130.228 17.3187C129.331 16.4216 128.231 15.7572 127.022 15.3821C124.402 14.588 121.637 14.3954 118.934 14.8198C118.543 14.8679 118.158 14.962 117.789 15.1005C116.018 15.6622 116.03 15.6628 117.207 17.0672C118.65 18.7443 120.442 20.083 122.456 20.9889C124.47 21.8948 126.657 22.3456 128.863 22.3101ZM120.803 9.01452C122.319 10.5379 124.307 11.4961 126.438 11.7302C127.811 11.7302 128.395 11.0749 128.274 9.57685C128.181 8.25195 127.803 6.9626 127.166 5.79874C126.529 4.63488 125.648 3.62404 124.584 2.83532C122.594 1.2621 120.2 0.288142 117.68 0.0264277C116.36 -0.0672022 116.249 0.0267934 116.578 1.33761C117.262 4.2366 118.723 6.8912 120.803 9.01452ZM136.554 18.9398C137.975 17.0067 138.79 14.692 138.897 12.2916C138.688 8.03646 136.934 4.00618 133.967 0.962726C133.894 0.786912 133.762 0.642653 133.593 0.556753C133.424 0.470852 133.23 0.449007 133.046 0.494577C132.895 0.594766 132.775 0.735793 132.7 0.901464C132.626 1.06713 132.599 1.2507 132.624 1.43087C132.039 4.1399 131.714 6.89879 131.653 9.67012C131.632 13.0408 131.876 16.412 134.389 19.1273C135.422 20.1572 135.599 20.157 136.557 18.9398H136.554ZM140.708 32.8901C141.063 33.5455 141.57 33.3588 141.998 32.9843C144.127 31.3096 145.641 28.9703 146.301 26.336C146.679 25.2227 146.837 24.0467 146.767 22.8725C146.643 19.7819 145.71 16.7779 144.064 14.1642C143.509 13.3215 143.186 13.322 142.73 14.2583C141.396 16.9435 140.364 19.7699 139.655 22.685C139.033 24.8751 138.881 27.1733 139.211 29.4266C139.512 30.6584 140.019 31.8291 140.711 32.8901H140.708ZM142.962 43.471C142.917 44.785 143.151 46.0932 143.647 47.3095C143.901 47.9649 144.189 48.0585 144.822 47.7776C147.537 46.6095 149.694 44.4274 150.839 41.6917C152.586 37.7242 152.757 33.2349 151.316 29.1449C150.979 28.0214 150.619 27.9279 149.891 28.8642C146.897 32.397 144.653 36.5075 143.298 40.9428C143.12 41.7752 143.008 42.6208 142.965 43.471H142.962ZM145.479 54.425C144.105 56.5677 143.436 59.0895 143.565 61.6347C143.565 61.7283 143.598 62.0094 143.59 62.2903C143.559 63.1329 144.021 63.4138 144.844 63.2266C146.714 62.7888 148.461 61.9288 149.951 60.7121C151.442 59.4954 152.637 57.954 153.446 56.2043C155.172 52.8313 155.828 49.0083 155.327 45.2494C155.347 45.0938 155.328 44.9355 155.274 44.7886C155.219 44.6418 155.129 44.5114 155.012 44.4073C154.85 44.3981 154.688 44.4264 154.54 44.4914C154.391 44.5565 154.259 44.6559 154.156 44.7813C150.729 47.4662 147.794 50.7293 145.482 54.425H145.479ZM155.036 61.8221C150.563 64.2565 146.302 66.8778 142.999 70.8102C141.69 72.3002 140.79 74.108 140.389 76.054C140.09 77.6457 140.332 77.9266 141.904 77.9266H142.452C145.725 77.7405 148.792 76.2589 150.98 73.8065C153.408 71.2822 155.031 68.0874 155.64 64.631C155.831 63.9269 155.951 63.2057 156 62.4777C155.985 61.7287 155.686 61.5412 155.039 61.8221H155.036ZM152.091 78.7687C150.263 79.08 148.472 79.5827 146.747 80.2674C143.598 81.344 140.642 82.9249 137.995 84.9489C136.27 86.2408 134.989 88.0409 134.33 90.0985C134.264 90.2233 134.231 90.3632 134.234 90.5045C134.237 90.6458 134.276 90.7839 134.347 90.9059C134.418 91.0279 134.519 91.1295 134.64 91.2012C134.761 91.2729 134.899 91.3122 135.039 91.3155C136.087 91.6594 137.186 91.8178 138.288 91.7837C143.367 91.5964 147.167 89.0688 150.183 85.1363C151.488 83.5401 152.455 81.6911 153.021 79.705C153.313 78.6751 153.206 78.5815 152.094 78.7687H152.091ZM146.333 94.2177C144.518 94.3113 142.703 94.4989 140.893 94.5925C137.428 94.8844 134.044 95.8047 130.905 97.3082C128.794 98.2342 127.001 99.7641 125.751 101.708C125.31 102.457 125.404 102.832 126.149 103.207C127.953 104.201 129.991 104.686 132.047 104.611C136.014 104.798 139.015 103.019 141.926 100.959C143.956 99.4382 145.666 97.529 146.959 95.3414C147.517 94.4987 147.36 94.124 146.334 94.2177H146.333Z" fill="url(#paint0_linear)"/>
<path opacity="0.2" fill-rule="evenodd" clip-rule="evenodd" d="M54.5225 118H52.3332C48.0466 115.73 43.9399 113.132 40.0496 110.229C39.989 110.323 39.9284 110.416 39.8687 110.51C40.3911 110.92 40.8917 111.358 41.3683 111.821C41.4568 111.873 41.5304 111.947 41.5822 112.037C41.634 112.126 41.6621 112.227 41.664 112.33C41.6659 112.433 41.6414 112.535 41.5929 112.626C41.5444 112.717 41.4735 112.795 41.387 112.85C39.8428 114.265 37.9675 115.263 35.9358 115.753C29.9272 117.157 24.8264 115.097 20.2074 111.446C19.6109 110.978 19.0396 110.416 18.4767 109.948C18.3151 109.851 18.1806 109.713 18.0858 109.55C17.991 109.386 17.9388 109.201 17.9343 109.012C18.0271 108.829 18.1791 108.683 18.3654 108.598C18.5516 108.513 18.7611 108.494 18.9595 108.544C20.2709 108.233 21.6022 108.014 22.9438 107.888C24.9623 107.593 26.9984 107.437 29.0381 107.42C32.3933 107.701 35.823 107.888 38.8389 109.761C39.0257 109.859 39.2288 109.923 39.4382 109.948C20.4535 93.8439 11.2585 73.6191 13.0507 48.8072C14.0209 35.4181 19.0052 23.4339 27.1284 12.6665C27.1979 12.7134 27.2544 12.7773 27.2928 12.8521C27.3312 12.9268 27.3502 13.0103 27.3479 13.0944C27.3457 13.1784 27.3224 13.2604 27.2801 13.333C27.2378 13.4056 27.1779 13.4664 27.1061 13.5095C24.8994 16.6583 22.943 19.9765 21.255 23.4339C19.3517 27.3996 17.8276 31.538 16.7032 35.7932C15.6717 39.847 14.9857 43.9818 14.6528 48.1525C14.3963 50.7031 14.3178 53.2678 14.4179 55.8294C14.6657 61.9184 15.6471 67.9549 17.3406 73.8065C19.3968 80.3626 22.4048 86.578 26.2672 92.2518C27.5229 94.3113 29.0377 96.1995 30.7744 97.8696C30.8276 98.1574 30.9722 98.42 31.1863 98.6184C36.2624 104.559 42.3838 109.511 49.2446 113.225C50.8573 114.153 52.5162 114.996 54.2149 115.753C54.382 115.784 54.5377 115.86 54.6663 115.972C54.7949 116.084 54.8919 116.228 54.9473 116.39C55.0027 116.551 55.0147 116.725 54.982 116.893C54.9493 117.06 54.8731 117.216 54.761 117.344C54.6019 117.525 54.5167 117.759 54.5225 118ZM30.7716 97.8696C29.9295 96.3461 29.4488 94.6481 29.367 92.9074V92.8132C29.3605 92.7196 29.3568 92.5323 29.3559 92.3451C29.358 92.3139 29.358 92.283 29.3559 92.2518C29.3559 92.1582 29.3559 91.9706 29.3652 91.8769C29.3745 91.7833 29.3652 91.784 29.3717 91.6904C29.3782 91.5968 29.3866 91.4091 29.3978 91.3155C29.409 91.2219 29.4108 91.2217 29.4155 91.1281C29.4202 91.0344 29.4379 90.9414 29.4528 90.7541C29.464 90.6605 29.4789 90.5661 29.492 90.4725C29.505 90.3788 29.5152 90.3796 29.5292 90.2859C29.559 90.0987 29.592 89.9109 29.628 89.7236C30.3887 86.196 32.1168 82.9527 34.6169 80.3606C35.0317 79.8925 35.2405 80.0799 35.5276 80.5481C35.9333 81.2113 36.2224 81.9396 36.3822 82.7014C37.2014 85.4889 37.4112 88.4216 36.9973 91.2981C36.5834 94.1747 35.5556 96.927 33.9842 99.3673C33.9395 99.4883 33.8653 99.5962 33.7685 99.6809C33.6716 99.7657 33.5552 99.8249 33.4298 99.8528C33.3044 99.8808 33.174 99.8766 33.0506 99.8409C32.9272 99.8052 32.8146 99.7396 32.7232 99.6489C32.5545 99.4617 32.3895 99.368 32.2255 99.1808C32.1938 99.1808 32.1631 99.1802 32.1323 99.0866C31.6557 98.708 31.2016 98.3018 30.7725 97.8696H30.7716ZM44.5315 108.169C44.1587 109.199 43.7607 109.386 42.8157 108.824C39.8249 107.139 38.4531 104.424 38.2145 101.053C37.9564 97.1293 38.8699 93.2172 40.838 89.8178C41.6116 88.4133 41.8334 88.3192 42.6731 89.7236C44.8412 93.1238 45.915 97.1121 45.7487 101.147C45.8389 103.547 45.4241 105.94 44.5315 108.169ZM22.0518 27.4598C25.1528 25.6345 28.763 24.8784 32.3317 25.3065C33.274 25.3065 33.465 25.6808 32.9617 26.5235C30.0726 31.2986 25.9644 34.1075 20.2988 34.482C20.0071 34.482 19.7144 34.5762 19.4274 34.5762C18.4954 34.7635 18.1338 34.2946 18.2279 33.3583C18.319 32.131 18.7172 30.947 19.3858 29.9157C20.0543 28.8845 20.9713 28.0397 22.0518 27.4598ZM18.5438 39.9124C20.9327 37.9102 23.8628 36.6713 26.9579 36.3546C27.0306 36.3546 27.1051 36.2613 27.1731 36.2613C27.7854 36.0741 28.5171 35.6054 29.0045 36.1672C29.4761 36.729 28.8749 37.478 28.6391 38.0398C27.6589 40.4368 26.1548 42.5817 24.2379 44.3159C22.321 46.05 20.0406 47.3292 17.5653 48.0583C15.8056 48.6201 15.2185 48.1523 15.1943 46.0925C15.3001 44.8866 15.6522 43.715 16.2285 42.6518C16.8048 41.5886 17.5929 40.656 18.5438 39.9124ZM15.5298 61.9154C15.2439 61.0972 15.051 60.2498 14.9547 59.3881C15.2524 56.3286 16.7272 53.5064 19.0648 51.5228C21.0443 49.7107 23.4226 48.3956 26.0053 47.6844C27.2048 47.3099 27.4788 47.4964 27.2449 48.8072C26.7652 51.7311 25.586 54.4949 23.8086 56.8599C21.9973 59.2668 19.6304 61.1948 16.9119 62.4777C16.1542 62.8522 15.8373 62.758 15.5298 61.9154ZM29.573 70.6237C30.3447 69.9683 30.5982 70.3428 30.7482 71.0918C31.148 72.3941 31.3156 73.7569 31.2431 75.1177C31.1822 79.9691 29.2979 84.6175 25.9681 88.1317C25.0771 89.068 24.8804 89.0684 24.1116 88.0385C22.0164 85.4168 21.926 82.4209 23.0603 79.3311C24.3262 75.8454 26.5927 72.8153 29.573 70.6237ZM20.3137 75.8666C19.2792 76.7093 18.9931 76.6156 18.4078 75.3984C17.8424 74.3381 17.53 73.1601 17.4954 71.9577C17.4608 70.7553 17.7049 69.5609 18.2083 68.4695C19.8569 64.5931 22.8324 61.4378 26.5963 59.5746C27.6597 59.0128 27.8777 59.1068 27.9252 60.4177C27.9392 60.6986 27.9252 61.0727 27.9252 61.4472C27.4108 67.3459 25.1442 72.3086 20.3137 75.8666ZM27.1368 22.3101C26.2973 22.2948 25.4594 22.2321 24.6269 22.1227C24.4547 22.0975 24.2911 22.0311 24.1499 21.9289C24.0087 21.8266 23.8941 21.6919 23.8158 21.5357C23.7375 21.3795 23.6978 21.2067 23.7002 21.0319C23.7025 20.857 23.7468 20.6857 23.8292 20.5317C24.208 19.3185 24.8746 18.2157 25.7716 17.3187C26.6686 16.4216 27.7691 15.7572 28.9784 15.3821C31.5983 14.588 34.3625 14.3954 37.0663 14.8198C37.4574 14.8679 37.8415 14.962 38.2107 15.1005C39.9815 15.6622 39.9703 15.6628 38.7932 17.0672C37.3501 18.7443 35.5584 20.083 33.5445 20.9889C31.5305 21.8948 29.3432 22.3456 27.1368 22.3101ZM35.1967 9.01452C33.681 10.5379 31.6931 11.4961 29.5619 11.7302C28.189 11.7302 27.6047 11.0749 27.7258 9.57685C27.8189 8.25195 28.197 6.9626 28.834 5.79874C29.4711 4.63488 30.3518 3.62404 31.4156 2.83532C33.4063 1.2621 35.8003 0.288142 38.3198 0.0264277C39.6404 -0.0672022 39.7513 0.0267934 39.4223 1.33761C38.7384 4.2366 37.2769 6.8912 35.1967 9.01452ZM19.446 18.9398C18.0254 17.0067 17.2098 14.692 17.103 12.2916C17.3117 8.03646 19.0658 4.00618 22.0332 0.962726C22.1056 0.786912 22.2382 0.642653 22.4072 0.556753C22.5761 0.470852 22.7702 0.449007 22.954 0.494577C23.1051 0.594766 23.2249 0.735793 23.2996 0.901464C23.3743 1.06713 23.4009 1.2507 23.3762 1.43087C23.9611 4.1399 24.2862 6.89879 24.3473 9.67012C24.3678 13.0408 24.1237 16.412 21.611 19.1273C20.5784 20.1572 20.4013 20.157 19.4432 18.9398H19.446ZM15.2921 32.8901C14.937 33.5455 14.43 33.3588 14.0022 32.9843C11.8733 31.3096 10.3594 28.9703 9.69923 26.336C9.32094 25.2227 9.16265 24.0467 9.23323 22.8725C9.35749 19.7819 10.2896 16.7779 11.936 14.1642C12.4905 13.3215 12.8139 13.322 13.2697 14.2583C14.6039 16.9435 15.6355 19.7699 16.3453 22.685C16.9673 24.8751 17.1185 27.1733 16.7889 29.4266C16.4881 30.6584 15.981 31.8291 15.2893 32.8901H15.2921ZM13.0376 43.471C13.0828 44.785 12.8493 46.0932 12.3526 47.3095C12.0991 47.9649 11.8111 48.0585 11.1783 47.7776C8.46299 46.6095 6.3056 44.4274 5.16134 41.6917C3.41351 37.7242 3.24282 33.2349 4.6842 29.1449C5.02065 28.0214 5.38132 27.9279 6.1092 28.8642C9.10308 32.397 11.3466 36.5075 12.7021 40.9428C12.8804 41.7752 12.9917 42.6208 13.0348 43.471H13.0376ZM10.5213 54.425C11.8946 56.5677 12.5638 59.0895 12.4346 61.6347C12.4346 61.7283 12.402 62.0094 12.4104 62.2903C12.4412 63.1329 11.9789 63.4138 11.1559 63.2266C9.28556 62.7888 7.53896 61.9288 6.04851 60.7121C4.55806 59.4954 3.36292 57.954 2.55365 56.2043C0.82819 52.8313 0.17186 49.0083 0.672886 45.2494C0.653141 45.0938 0.671516 44.9355 0.726414 44.7886C0.781311 44.6418 0.871082 44.5114 0.987911 44.4073C1.14988 44.3981 1.3117 44.4264 1.46045 44.4914C1.6092 44.5565 1.74069 44.6559 1.84436 44.7813C5.2706 47.4662 8.20572 50.7293 10.5184 54.425H10.5213ZM0.963676 61.8221C5.43724 64.2565 9.69827 66.8778 13.0013 70.8102C14.3103 72.3002 15.2098 74.108 15.6109 76.054C15.91 77.6457 15.6677 77.9266 14.0964 77.9266H13.5484C10.275 77.7405 7.20839 76.2589 5.0197 73.8065C2.59173 71.2822 0.969128 68.0874 0.359737 64.631C0.169403 63.9269 0.048912 63.2057 0 62.4777C0.0149117 61.7287 0.31403 61.5412 0.960835 61.8221H0.963676ZM3.90875 78.7687C5.73711 79.08 7.52816 79.5827 9.2528 80.2674C12.4022 81.344 15.3578 82.9249 18.0051 84.9489C19.73 86.2408 21.011 88.0409 21.6697 90.0985C21.7358 90.2233 21.7689 90.3632 21.766 90.5045C21.7631 90.6458 21.7243 90.7839 21.6532 90.9059C21.5821 91.0279 21.4811 91.1295 21.3599 91.2012C21.2386 91.2729 21.1012 91.3122 20.9605 91.3155C19.913 91.6594 18.8139 91.8178 17.7125 91.7837C12.6331 91.5964 8.83337 89.0688 5.81744 85.1363C4.51158 83.5401 3.54544 81.6911 2.97863 79.705C2.68692 78.6751 2.79409 78.5815 3.90596 78.7687H3.90875ZM9.66658 94.2177C11.4821 94.3113 13.2967 94.4989 15.1067 94.5925C18.5719 94.8844 21.9559 95.8047 25.0948 97.3082C27.206 98.2342 28.9987 99.7641 30.2487 101.708C30.6896 102.457 30.5964 102.832 29.8508 103.207C28.047 104.201 26.0091 104.686 23.9531 104.611C19.9856 104.798 16.9846 103.019 14.074 100.959C12.0442 99.4382 10.3338 97.529 9.04125 95.3414C8.48299 94.4987 8.64048 94.124 9.66567 94.2177H9.66658Z" fill="url(#paint1_linear)"/>
<defs>
<linearGradient id="paint0_linear" x1="128.5" y1="0" x2="128.5" y2="118" gradientUnits="userSpaceOnUse">
<stop stop-color="#33B5FF"/>
<stop offset="1" stop-color="#33B5FF" stop-opacity="0"/>
</linearGradient>
<linearGradient id="paint1_linear" x1="27.5" y1="0" x2="27.5" y2="118" gradientUnits="userSpaceOnUse">
<stop stop-color="#33B5FF"/>
<stop offset="1" stop-color="#33B5FF" stop-opacity="0"/>
</linearGradient>
</defs>
</svg>
