<svg xmlns="http://www.w3.org/2000/svg" width="125" height="125" viewBox="0 0 250 250"><defs><linearGradient id="y002a" x1="0" x2="250" y1="125" y2="125" gradientUnits="userSpaceOnUse"><stop offset="0" stop-color="#40a3ff"/><stop offset="1" stop-color="#32b5ff"/></linearGradient></defs><g><g><path fill="url(#y002a)" d="M0 40C0 17.909 17.909 0 40 0h170c22.091 0 40 17.909 40 40v170c0 22.091-17.909 40-40 40H40c-22.091 0-40-17.909-40-40z"/></g><g><path fill="#fff" d="M218 78.378V53.505h-53.733l14.88-10.778L165.093 22l-40.506 29.018-39.68-28.189-14.88 19.898 14.88 10.778H32v24.873h80.187v13.266H51.013v24.872h61.174v13.266h-74.4v24.873h74.4v3.316c0 3.316 0 6.633-.827 9.949H37.787v24.873h65.306c-11.573 19.069-33.066 32.334-57.04 32.334H34.48V250h11.573c33.894 0 62.827-18.24 78.534-45.6 15.706 27.36 45.466 45.6 78.533 45.6h11.573v-24.873H203.12c-23.973 0-45.467-13.265-57.04-32.334h63.653V167.92h-72.746c-.827-3.316-.827-6.633-.827-9.949v-3.316h73.573v-24.873H136.16v-13.266h57.04V91.644h-57.04V78.378z"/></g></g></svg>