<svg width="300" height="240" viewBox="0 0 300 240" fill="none" xmlns="http://www.w3.org/2000/svg">
<rect opacity="0.8" width="300" height="240" rx="30" fill="url(#paint0_linear)"/>
<path d="M183.957 148.521L170.437 135.016C175.293 128.801 177.593 120.97 176.867 113.119C176.142 105.269 172.446 97.9904 166.534 92.7681C160.621 87.5457 152.937 84.7728 145.048 85.0146C137.16 85.2564 129.66 88.4948 124.079 94.0695C118.499 99.6441 115.257 107.135 115.015 115.015C114.773 122.895 117.549 130.571 122.777 136.477C128.005 142.383 135.291 146.074 143.15 146.799C151.009 147.524 158.849 145.227 165.071 140.376L178.591 153.881C179.279 154.58 180.215 154.982 181.196 155C181.683 154.994 182.163 154.892 182.61 154.7C183.057 154.508 183.462 154.23 183.801 153.881C184.166 153.541 184.459 153.131 184.665 152.677C184.871 152.223 184.984 151.732 184.998 151.233C185.013 150.735 184.928 150.239 184.75 149.773C184.571 149.307 184.302 148.882 183.957 148.521ZM146.133 139.361C141.527 139.361 137.024 137.997 133.195 135.441C129.365 132.885 126.38 129.252 124.617 125.001C122.854 120.75 122.393 116.073 123.292 111.56C124.19 107.048 126.408 102.903 129.665 99.6492C132.922 96.3959 137.072 94.1803 141.59 93.2827C146.107 92.3851 150.79 92.8458 155.045 94.6065C159.3 96.3672 162.938 99.3489 165.497 103.174C168.056 107 169.421 111.498 169.421 116.099C169.415 122.266 166.959 128.179 162.593 132.54C158.227 136.901 152.307 139.354 146.133 139.361Z" fill="white"/>
<defs>
<linearGradient id="paint0_linear" x1="5.58794e-07" y1="120" x2="300" y2="120" gradientUnits="userSpaceOnUse">
<stop stop-color="#40A3FF"/>
<stop offset="1" stop-color="#32B5FF"/>
</linearGradient>
</defs>
</svg>
