<svg xmlns="http://www.w3.org/2000/svg" width="168" height="54" viewBox="0 0 168 54"><defs><linearGradient id="up90a" x1="53.63" x2="85.06" y1="32.5" y2="32.5" gradientUnits="userSpaceOnUse"><stop offset="0" stop-color="#40a3ff"/><stop offset="1" stop-color="#32b5ff"/></linearGradient><linearGradient id="up90b" x1="0" x2="32.16" y1="32.72" y2="32.73" gradientUnits="userSpaceOnUse"><stop offset="0" stop-color="#40a3ff"/><stop offset="1" stop-color="#32b5ff"/></linearGradient><linearGradient id="up90c" x1="35.11" x2="54.46" y1="26.78" y2="26.78" gradientUnits="userSpaceOnUse"><stop offset="0" stop-color="#40a3ff"/><stop offset="1" stop-color="#32b5ff"/></linearGradient><linearGradient id="up90d" x1="89.39" x2="126.44" y1="32.64" y2="32.64" gradientUnits="userSpaceOnUse"><stop offset="0" stop-color="#40a3ff"/><stop offset="1" stop-color="#32b5ff"/></linearGradient><linearGradient id="up90e" x1="130.4" x2="168" y1="30.52" y2="30.52" gradientUnits="userSpaceOnUse"><stop offset="0" stop-color="#40a3ff"/><stop offset="1" stop-color="#32b5ff"/></linearGradient></defs><g><g><g><path fill="url(#up90a)" d="M85.052 32.5c0 11.362-7.02 20.552-15.71 20.552-8.692 0-15.712-9.19-15.712-20.551 0-11.362 7.02-20.551 15.711-20.551S85.22 21.306 85.052 32.5zm-5.014.168c0-8.521-4.847-15.539-10.697-15.539-5.85 0-10.697 7.018-10.697 15.539 0 8.52 4.847 15.538 10.697 15.538 6.017 0 10.697-7.017 10.697-15.538z"/></g><g><path fill="url(#up90b)" d="M27.137 12.13h5.025v41.194h-5.025v-6.505c-2.848 3.836-6.868 6.338-11.39 6.338C7.035 53.157 0 43.984 0 32.643 0 21.303 7.036 12.13 15.746 12.13c4.523 0 8.543 2.335 11.391 6.337zm-.67 20.513c0-8.505-4.858-15.51-10.72-15.51-5.864 0-10.722 7.005-10.722 15.51 0 8.506 4.858 15.51 10.721 15.51s10.721-7.004 10.721-15.51z"/></g><g><path fill="url(#up90c)" d="M54.463 16.932v-5.007h-7.174V.24h-5.005v11.685H35.11v5.007h7.174v36.39h5.005v-36.39z"/></g><g><path fill="url(#up90d)" d="M115.92 11.95c-3.17 0-6.173 1.502-8.009 4.004-2.002-2.502-4.839-4.004-8.009-4.004-2.002 0-4.005.667-5.506 1.668v-1.501H89.39v41.211h5.006v-30.2c0-3.336 2.503-6.173 5.506-6.173 3.004 0 5.506 2.837 5.506 6.174v30.199h5.006v-30.2c0-3.336 2.503-6.173 5.506-6.173 3.004 0 5.507 2.837 5.507 6.174v30.199h5.005v-30.2c.167-6.173-4.672-11.178-10.512-11.178z"/></g><g><path fill="url(#up90e)" d="M168 18.891v-5.017h-10.863l3.008-2.173-2.84-4.181-8.189 5.853-8.021-5.686-3.008 4.014 3.008 2.173H130.4v5.017h16.21v2.676h-12.366v5.016h12.366v2.676h-15.04v5.016h15.04v.67c0 .668 0 1.337-.168 2.006H131.57v5.017h13.201c-2.34 3.846-6.684 6.521-11.53 6.521h-2.34v5.017h2.34c6.851 0 12.7-3.68 15.875-9.197 3.175 5.518 9.191 9.197 15.876 9.197h2.34v-5.017h-2.34c-4.847 0-9.191-2.675-11.53-6.521h12.867V36.95h-14.706c-.167-.669-.167-1.338-.167-2.007v-.669h14.873V29.26h-14.873v-2.676h11.53v-5.016h-11.53V18.89z"/></g></g></g></svg>