<?xml version="1.0" encoding="utf-8"?><svg xmlns="http://www.w3.org/2000/svg" xmlns:xlink="http://www.w3.org/1999/xlink"><symbol viewBox="0 0 68 68" id="answer" xmlns="http://www.w3.org/2000/svg"><path d="M34 67.333C15.59 67.333.667 52.41.667 34 .667 15.59 15.59.667 34 .667 52.41.667 67.333 15.59 67.333 34c0 18.41-14.923 33.333-33.333 33.333zm0-6.666a26.667 26.667 0 100-53.334 26.667 26.667 0 000 53.334zM30.667 44h6.666v6.667h-6.666V44zm6.666-5.483v2.15h-6.666v-5A3.333 3.333 0 0134 32.333a4.999 4.999 0 10-4.903-5.98l-6.54-1.31a11.67 11.67 0 1114.776 13.474z"/><defs><linearGradient id="aapaint0_linear" x1=".667" y1="34" x2="67.333" y2="34" gradientUnits="userSpaceOnUse"><stop stop-color="#40A3FF"/><stop offset="1" stop-color="#32B5FF"/></linearGradient></defs></symbol><symbol viewBox="0 0 16 16" id="arrow-left" xmlns="http://www.w3.org/2000/svg"><path d="M3.828 7H16v2H3.828l5.364 5.364-1.414 1.414L0 8 7.778.222l1.414 1.414L3.828 7z"/><defs><linearGradient id="abpaint0_linear" x1="0" y1="8" x2="16" y2="8" gradientUnits="userSpaceOnUse"><stop stop-color="#40A3FF"/><stop offset="1" stop-color="#32B5FF"/></linearGradient></defs></symbol><symbol viewBox="0 0 24 24" id="arrow-right" xmlns="http://www.w3.org/2000/svg"><path d="M16.172 11l-5.364-5.364 1.414-1.414L20 12l-7.778 7.778-1.414-1.414L16.172 13H4v-2h12.172z"/><defs><linearGradient id="acpaint0_linear" x1="4" y1="12" x2="20" y2="12" gradientUnits="userSpaceOnUse"><stop stop-color="#40A3FF"/><stop offset="1" stop-color="#32B5FF"/></linearGradient></defs></symbol><symbol viewBox="0 0 24 24" id="arrow-round" xmlns="http://www.w3.org/2000/svg"><path d="M5.463 4.433A9.961 9.961 0 0112 2c5.523 0 10 4.477 10 10 0 2.136-.67 4.116-1.81 5.74L17 12h3A8 8 0 006.46 6.228l-.997-1.795zm13.074 15.134A9.961 9.961 0 0112 22C6.477 22 2 17.523 2 12c0-2.136.67-4.116 1.81-5.74L7 12H4a8 8 0 0013.54 5.772l.997 1.795z"/><defs><linearGradient id="adpaint0_linear" x1="2" y1="12" x2="22" y2="12" gradientUnits="userSpaceOnUse"><stop stop-color="#40A3FF"/><stop offset="1" stop-color="#32B5FF"/></linearGradient></defs></symbol><symbol viewBox="0 0 14 24" id="arrow-small-left" xmlns="http://www.w3.org/2000/svg"><path d="M4.966 12l8.594 8.594-2.455 2.455L.056 12 11.105.952l2.455 2.455L4.966 12z"/><defs><linearGradient id="aepaint0_linear" x1=".056" y1="12" x2="13.56" y2="12" gradientUnits="userSpaceOnUse"><stop stop-color="#40A3FF"/><stop offset="1" stop-color="#32B5FF"/></linearGradient></defs></symbol><symbol viewBox="0 0 14 24" id="arrow-small-right" xmlns="http://www.w3.org/2000/svg"><path d="M9.035 12L.442 3.407 2.896.952 13.946 12 2.895 23.05.442 20.594 9.035 12z"/><defs><linearGradient id="afpaint0_linear" x1=".442" y1="12" x2="13.945" y2="12" gradientUnits="userSpaceOnUse"><stop stop-color="#40A3FF"/><stop offset="1" stop-color="#32B5FF"/></linearGradient></defs></symbol><symbol viewBox="0 0 25 24" id="arrow-video" xmlns="http://www.w3.org/2000/svg"><path d="M12.5 22c-5.523 0-10-4.477-10-10s4.477-10 10-10 10 4.477 10 10-4.477 10-10 10zM11.122 8.415a.4.4 0 00-.622.332v6.506a.4.4 0 00.622.332l4.879-3.252a.4.4 0 000-.666l-4.88-3.252h.001z"/></symbol><symbol viewBox="0 0 24 24" id="catalog-item-1" xmlns="http://www.w3.org/2000/svg"><path d="M8.287 0H2.775A2.779 2.779 0 000 2.775v5.512a2.779 2.779 0 002.775 2.775h5.512a2.779 2.779 0 002.775-2.775V2.775A2.779 2.779 0 008.287 0zm.9 8.287a.9.9 0 01-.9.9H2.775a.901.901 0 01-.9-.9V2.775c0-.496.404-.9.9-.9h5.512a.9.9 0 01.9.9v5.512zM21.188 0H15.75a2.816 2.816 0 00-2.813 2.813V8.25a2.816 2.816 0 002.813 2.813h5.438A2.816 2.816 0 0024 8.25V2.812A2.816 2.816 0 0021.187 0zm.937 8.25c0 .517-.42.938-.938.938H15.75a.939.939 0 01-.938-.938V2.812a.94.94 0 01.938-.937h5.438c.516 0 .937.42.937.938V8.25zM8.287 12.938H2.775A2.779 2.779 0 000 15.713v5.512A2.779 2.779 0 002.775 24h5.512a2.779 2.779 0 002.775-2.775v-5.512a2.779 2.779 0 00-2.775-2.775zm.9 8.287a.9.9 0 01-.9.9H2.775a.901.901 0 01-.9-.9v-5.512a.9.9 0 01.9-.9h5.512a.9.9 0 01.9.9v5.512zM21.188 12.938H15.75a2.816 2.816 0 00-2.813 2.812v5.438A2.816 2.816 0 0015.75 24h5.438A2.816 2.816 0 0024 21.187V15.75a2.816 2.816 0 00-2.813-2.813zm.937 8.25c0 .516-.42.937-.938.937H15.75a.939.939 0 01-.938-.938V15.75a.94.94 0 01.938-.938h5.438a.94.94 0 01.937.938v5.438z"/><defs><linearGradient id="ahpaint0_linear" x1="0" y1="5.531" x2="11.063" y2="5.531" gradientUnits="userSpaceOnUse"><stop stop-color="#40A3FF"/><stop offset="1" stop-color="#32B5FF"/></linearGradient><linearGradient id="ahpaint1_linear" x1="12.938" y1="5.531" x2="24" y2="5.531" gradientUnits="userSpaceOnUse"><stop stop-color="#40A3FF"/><stop offset="1" stop-color="#32B5FF"/></linearGradient><linearGradient id="ahpaint2_linear" x1="0" y1="18.469" x2="11.063" y2="18.469" gradientUnits="userSpaceOnUse"><stop stop-color="#40A3FF"/><stop offset="1" stop-color="#32B5FF"/></linearGradient><linearGradient id="ahpaint3_linear" x1="12.938" y1="18.469" x2="24" y2="18.469" gradientUnits="userSpaceOnUse"><stop stop-color="#40A3FF"/><stop offset="1" stop-color="#32B5FF"/></linearGradient></defs></symbol><symbol viewBox="0 0 30 30" id="catalog-item-10" xmlns="http://www.w3.org/2000/svg"><path d="M24.34 10.566V4.82h-5.536v1.534L15 3.462 1 14.11l3.38 4.444 1.28-.975v8.96h8.04v-6.06h2.6v6.06h8.04v-8.96l1.28.974L29 14.11l-4.66-3.544zm-1.643 14.33h-4.754v-6.06h-5.886v6.06H7.303V16.33L15 10.475l7.697 5.855v8.566zm2.61-8.644L15 8.412l-10.308 7.84-1.39-1.829L15 5.525l5.446 4.143V6.464h2.251v4.916l4.001 3.043-1.39 1.829z"/><defs><linearGradient id="aipaint0_linear" x1="1" y1="15" x2="29" y2="15" gradientUnits="userSpaceOnUse"><stop stop-color="#40A3FF"/><stop offset="1" stop-color="#32B5FF"/></linearGradient></defs></symbol><symbol viewBox="0 0 26 28" id="catalog-item-2" xmlns="http://www.w3.org/2000/svg"><path d="M2.124 16.49a3.285 3.285 0 00-1.2 4.483 3.28 3.28 0 004.481 1.2 3.287 3.287 0 001.522-3.72l3.005-1.735a4.102 4.102 0 002.248 1.301v5.2a2.465 2.465 0 00-1.64 2.32A2.464 2.464 0 0013 28a2.464 2.464 0 002.461-2.46c0-1.07-.686-1.982-1.64-2.32v-5.201a4.102 4.102 0 002.247-1.3l3.005 1.735a3.287 3.287 0 001.522 3.72 3.279 3.279 0 004.482-1.201 3.285 3.285 0 00-1.201-4.483 3.287 3.287 0 00-3.982.543l-3.004-1.735a4.083 4.083 0 000-2.597l4.456-2.572a2.461 2.461 0 10-.82-1.421l-4.458 2.574A4.102 4.102 0 0013.82 9.98V6.459a3.287 3.287 0 002.461-3.178A3.285 3.285 0 0013.001 0a3.285 3.285 0 00-3.283 3.28 3.287 3.287 0 002.46 3.178V9.98a4.102 4.102 0 00-2.247 1.3L5.475 8.709a2.461 2.461 0 10-.82 1.42l4.455 2.574a4.081 4.081 0 000 2.597l-3.004 1.734a3.287 3.287 0 00-3.982-.543zm2.461 4.263a1.64 1.64 0 11-1.641-2.84 1.64 1.64 0 011.641 2.84zm16.23-2.241a1.643 1.643 0 012.24-.6 1.64 1.64 0 11-2.241.6zm1.72-10.965a.82.82 0 11.821 1.42.82.82 0 01-.82-1.42zM13 26.36a.821.821 0 010-1.64.821.821 0 010 1.64zM11.36 3.281c0-.904.735-1.64 1.64-1.64a1.641 1.641 0 11-1.64 1.64zM13 11.54A2.464 2.464 0 0115.461 14a2.464 2.464 0 01-2.46 2.46A2.464 2.464 0 0110.538 14 2.464 2.464 0 0113 11.54zM3.765 8.668a.82.82 0 11-1.42-.819.82.82 0 011.42.819z"/><defs><linearGradient id="ajpaint0_linear" x1=".484" y1="14" x2="25.516" y2="14" gradientUnits="userSpaceOnUse"><stop stop-color="#40A3FF"/><stop offset="1" stop-color="#32B5FF"/></linearGradient></defs></symbol><symbol viewBox="0 0 28 26" id="catalog-item-3" xmlns="http://www.w3.org/2000/svg"><path d="M27.991 13.221l-2.257.012.141-.143c2.783-2.786 2.783-7.317-.003-10.102-2.785-2.786-7.319-2.786-10.104 0l-1.77 1.77-1.77-1.77a7.153 7.153 0 00-10.105 0C-.663 5.774-.663 10.307 2.121 13.09l.518.521H0v1.64h4.27l9.787 9.85 10.054-10.22 3.889-.02-.009-1.64zm-13.94 9.548l-7.469-7.516h3.564l1.54-3.706 2.346 7.395 3.402-5.222.9 1.194 3.464-.019-7.746 7.874zm9.37-9.523l-4.272.023-1.812-2.405-2.789 4.28-2.653-8.368-2.844 6.836h-4.1l-1.668-1.68A5.47 5.47 0 011.67 8.04c0-1.47.572-2.853 1.612-3.892a5.469 5.469 0 013.892-1.613 5.47 5.47 0 013.893 1.613l2.93 2.93 2.93-2.93a5.469 5.469 0 013.892-1.613 5.47 5.47 0 013.893 1.613 5.469 5.469 0 011.612 3.892 5.47 5.47 0 01-1.612 3.893l-1.293 1.313z"/><defs><linearGradient id="akpaint0_linear" x1="0" y1="13" x2="28" y2="13" gradientUnits="userSpaceOnUse"><stop stop-color="#40A3FF"/><stop offset="1" stop-color="#32B5FF"/></linearGradient></defs></symbol><symbol viewBox="0 0 30 30" id="catalog-item-4" xmlns="http://www.w3.org/2000/svg"><g clip-path="url(#alclip0)"><path d="M15.055 16.64a4.106 4.106 0 00-4.101 4.101 4.105 4.105 0 004.1 4.101 4.106 4.106 0 004.102-4.1 4.106 4.106 0 00-4.101-4.102zm0 6.562a2.463 2.463 0 01-2.461-2.46 2.463 2.463 0 012.46-2.461 2.463 2.463 0 012.461 2.46 2.463 2.463 0 01-2.46 2.46z"/><path d="M28.302 13.104l-.185-.565h-2.4v-4.1h-2.515V1.056l-2.73 2.047a6.207 6.207 0 01-3.7 1.233h-5.053a4.929 4.929 0 00-4.852 4.101H4.283v4.101h-2.4l-.186.565c-1.903 5.79.176 12.093 5.173 15.685l.215.154h15.83l.215-.154c4.997-3.592 7.076-9.896 5.172-15.686zM11.72 5.978h5.053a7.857 7.857 0 004.685-1.562l.105-.079v4.101H8.542a3.287 3.287 0 013.177-2.46zm-5.796 4.1h18.154v2.461H5.923v-2.46zm16.46 17.225H7.617c-2.956-2.217-4.705-5.526-4.947-9.022h4.947v-1.64h-4.95c.054-.822.191-1.646.417-2.461h23.83c.226.815.363 1.639.417 2.46h-4.95v1.64h4.947c-.242 3.497-1.991 6.806-4.947 9.023z"/></g><defs><linearGradient id="alpaint0_linear" x1="10.954" y1="20.741" x2="19.156" y2="20.741" gradientUnits="userSpaceOnUse"><stop stop-color="#40A3FF"/><stop offset="1" stop-color="#32B5FF"/></linearGradient><linearGradient id="alpaint1_linear" x1="1" y1="15" x2="29" y2="15" gradientUnits="userSpaceOnUse"><stop stop-color="#40A3FF"/><stop offset="1" stop-color="#32B5FF"/></linearGradient><clipPath id="alclip0"><path transform="translate(1 1)" d="M0 0h28v28H0z"/></clipPath></defs></symbol><symbol viewBox="0 0 30 30" id="catalog-item-5" xmlns="http://www.w3.org/2000/svg"><path d="M4.099 28.94c-.23-1.65-.46-3.275-.689-4.912-.459-3.276-.93-6.551-1.339-9.839-.395-3.163.867-5.613 3.494-7.4.382-.263.523-.513.51-.951C6.049 4.225 6.062 2.625 6.062 1h7.396v1.663c0 1.1-.013 2.212.012 3.313.013.225.14.537.32.65 2.715 1.762 3.926 4.225 3.684 7.5h8.747c0 1.226.013 2.338-.013 3.463-.012.525.115.95.408 1.4 2.04 3.126 1.811 6.839-.599 9.714-.127.15-.382.288-.574.288-7.05.012-14.102.012-21.166 0a1.205 1.205 0 00-.178-.05zm15.096-1.587c1.747 0 3.481-.013 5.228.012.383 0 .612-.112.816-.437 1.403-2.3 1.441-4.6.039-6.913-.217-.363-.46-.525-.906-.513a718.18 718.18 0 01-10.379 0c-.459 0-.701.163-.918.513-1.351 2.325-1.339 4.625.064 6.925.204.325.446.438.829.438 1.746-.038 3.493-.025 5.227-.025zm-8.772-2.713c-.357-.037-.74-.025-1.11-.112-1.415-.313-2.244-1.3-2.83-2.5-1.084-2.188-1.186-4.489-.701-6.839.293-1.438.88-2.75 2.014-3.75 1.3-1.138 3.035-1.163 4.246.062.625.625 1.02 1.463 1.53 2.188.115.162.243.4.383.412.586.05 1.173.025 1.734.025.51-2.437-.803-5.113-2.996-6.175a1.557 1.557 0 00-.676-.138 273.198 273.198 0 00-4.527 0c-.242 0-.523.05-.727.175-2.205 1.375-3.315 3.3-3.021 5.888.19 1.65.433 3.3.663 4.951.37 2.663.74 5.326 1.122 7.988.025.188.242.5.37.5 1.797.038 3.595.025 5.418.025l-.892-2.7zm1.76-8v-1.188c.012-1.1-.498-1.963-1.25-2.7-.65-.638-1.339-.638-2.027-.038a2.89 2.89 0 00-.574.662c-1.518 2.263-1.492 6.326.064 8.551a3.17 3.17 0 001.02.9c.612.338.918.088 1.109-.562.28-.988.561-2.013 1.058-2.913.421-.762.714-1.475.612-2.338-.025-.125-.012-.25-.012-.375zm1.734-.788v1.95h10.57v-1.95h-10.57zM7.77 6.076h3.927V2.65H7.771v3.426z"/><defs><linearGradient id="ampaint0_linear" x1="2" y1="15" x2="28" y2="15" gradientUnits="userSpaceOnUse"><stop stop-color="#40A3FF"/><stop offset="1" stop-color="#32B5FF"/></linearGradient></defs></symbol><symbol viewBox="0 0 28 28" id="catalog-item-6" xmlns="http://www.w3.org/2000/svg"><path d="M20.61 5.677a2.46 2.46 0 00-.833.144v-.928a2.476 2.476 0 00-3.304-2.328v-.092A2.476 2.476 0 0014 0c-1.234 0-2.26.91-2.443 2.093A2.475 2.475 0 008.223 4.41v8.099H7.076a2.163 2.163 0 00-2.158 2.16v3.504a9.068 9.068 0 003.305 6.995V28h11.554v-2.831a9.067 9.067 0 003.304-6.994V8.15a2.475 2.475 0 00-2.472-2.473zm.83 12.497c0 2.35-1.085 4.515-2.977 5.943l-.326.246v1.996H9.863v-1.996l-.326-.246C7.644 22.69 6.56 20.523 6.56 18.174V14.67a.52.52 0 01.519-.518l1.145-.001v3.141h1.64V4.411a.833.833 0 011.665 0v10.41h1.64V2.472a.833.833 0 011.664 0V14.82h1.64V4.893a.833.833 0 011.665 0v9.927h1.64V8.15a.833.833 0 011.664 0v10.024z"/><defs><linearGradient id="anpaint0_linear" x1="4.918" y1="14" x2="23.081" y2="14" gradientUnits="userSpaceOnUse"><stop stop-color="#40A3FF"/><stop offset="1" stop-color="#32B5FF"/></linearGradient></defs></symbol><symbol viewBox="0 0 28 25" id="catalog-item-7" xmlns="http://www.w3.org/2000/svg"><path d="M28 12.926h-6.417c-1.551-3.473-3.52-5.656-3.625-5.77L15.35 4.3l1.234 3.734c.009.024.619 1.902.907 4.892h-7.139c-1.938-5.98-5.48-9.907-5.64-10.082L2.117 0 3.34 3.721c.013.04 1.205 3.73 1.333 9.205H0v1.725h4.676a5.277 5.277 0 01-.677 2.511 5.347 5.347 0 00-.702 2.831C3.38 22.727 5.549 25.001 8.239 25c1.272 0 2.47-.499 3.397-1.421 2.001-1.988 2.038-5.246.202-7.294a4.998 4.998 0 01-.966-1.634h6.739c.02.488.03.996.028 1.523a5.832 5.832 0 01-.634 2.566c-.808 1.611-.567 3.65.739 5.011A3.977 3.977 0 0020.625 25c2.24 0 4.08-1.898 4.08-4.276a4.39 4.39 0 00-1.008-2.814c-.454-.543-.793-1.203-1.01-1.964a21.793 21.793 0 00-.414-1.295H28v-1.725zM8.057 23.27c-1.692-.093-3.06-1.556-3.114-3.332-.02-.667.141-1.32.467-1.886.575-1 .89-2.17.913-3.386A42.253 42.253 0 005.8 7.15c1.17 1.862 2.523 4.463 3.351 7.535a6.84 6.84 0 001.487 2.782 3.52 3.52 0 01.892 2.36c0 1.958-1.56 3.548-3.472 3.444zm14.248-.7a2.357 2.357 0 01-1.799.702c-1.237-.06-2.255-1.12-2.317-2.416a2.654 2.654 0 01.274-1.315 7.63 7.63 0 00.823-3.358 33.867 33.867 0 00-.298-4.672c.768 1.322 1.571 3.001 2.12 4.928.285 1 .739 1.877 1.349 2.607.84 1.004.812 2.559-.152 3.523z"/><defs><linearGradient id="aopaint0_linear" x1="0" y1="12.5" x2="28" y2="12.5" gradientUnits="userSpaceOnUse"><stop stop-color="#40A3FF"/><stop offset="1" stop-color="#32B5FF"/></linearGradient></defs></symbol><symbol viewBox="0 0 30 30" id="catalog-item-8" xmlns="http://www.w3.org/2000/svg"><g clip-path="url(#apclip0)"><path d="M14.976 28.939c-1.688 0-3.388.125-5.05-.025-2.425-.225-4.262-1.6-5.675-3.511C1.626 21.842.739 17.78 1.076 13.42c.238-3.087 1.125-5.973 2.975-8.484 1.463-2 3.313-3.449 5.838-3.848 1.575-.25 3.05.1 4.475.787.312.15.812.237 1.087.1 3.462-1.9 7.075-.838 9.525 1.786 2.088 2.237 3.213 4.936 3.725 7.91.725 4.235.175 8.296-1.887 12.094-1 1.85-2.338 3.386-4.238 4.385a7.072 7.072 0 01-3.288.85c-1.437.012-2.875 0-4.312 0v-.062zm.012-1.575c1.088 0 2.175-.05 3.25.013 3.076.175 5.226-1.3 6.75-3.799 1.976-3.236 2.688-6.784 2.213-10.545-.35-2.811-1.225-5.435-3.012-7.684-1.838-2.311-4.85-3.66-8.038-1.862-.787.438-1.588.4-2.387-.025-1.125-.6-2.3-.937-3.6-.762C8.3 2.963 6.889 3.962 5.75 5.4c-3.887 4.934-4.125 13.38-.525 18.553 1.6 2.3 3.688 3.599 6.587 3.424 1.05-.063 2.113-.013 3.175-.013z"/><path d="M15.037 5.91c1.25 0 2.5.013 3.75 0 2.25-.037 4.063.875 5.188 2.787 2.287 3.885 2.437 7.959.45 11.982-1.138 2.311-3.138 3.473-5.775 3.436-2.375-.038-4.75-.063-7.125.012-3.025.1-5.288-1.524-6.363-4.235-1.375-3.474-1.275-6.972.35-10.346C6.687 7.122 8.625 5.823 11.4 5.923c1.212.025 2.425-.013 3.637-.013zm8.838 6.622H6.137c-.412 2.949-.375 5.773 1.563 8.41.45-1.813 1.1-3.362 2.575-4.361 1.575-1.063 3.175-.938 4.712.137.975-.662 2.013-1.025 3.2-.787 1.688.35 2.7 1.487 3.4 2.949.288.6.475 1.261.738 1.986 1.9-2.561 1.925-5.373 1.55-8.334zm-9.713 8.234v-1.624c0-1.15-.837-1.812-1.975-1.587-.725.15-1.337.525-1.725 1.137-.362.55-.725 1.15-.887 1.774-.438 1.712-.675 1.887 1.425 1.95 2.662.074 5.325.024 7.987.012.45 0 .913-.088 1.35-.2.15-.038.363-.275.35-.4-.137-1.474-.587-2.811-1.787-3.773-.825-.662-1.738-.675-2.625-.15-.325.187-.463.425-.438.812.025.675.013 1.362.013 2.062-.613-.013-1.1-.013-1.688-.013zm-.037-13.181c-1 0-1.938-.013-2.863.012-.125 0-.337.162-.337.25-.025.987-.013 1.987-.013 2.974h3.225c-.012-1.075-.012-2.112-.012-3.236zm4.925.05h-3.163v3.173h3.163V7.635zm-9.825.337c-1.263.675-2.013 1.612-2.488 2.836h2.488V7.972zm11.55 2.861h2.5c-.513-1.262-1.263-2.199-2.5-2.836v2.836z"/><path d="M198.783-75.084v-105.045H97.558v28.05l-69.559-52.909L-228-10.264l61.795 81.243 23.421-17.814v163.823H4.223V106.195h47.554v110.792h147.007V53.161l23.421 17.815L284-10.266l-85.217-64.818zm-30.034 262.037H81.811V76.161H-25.811v110.792h-86.939V30.32L28.001-76.74 168.749 30.317v156.636zm47.732-158.064L28.001-114.475-160.483 28.891l-25.431-33.433 213.912-162.71 99.593 75.753v-58.596h41.157v89.901l73.163 55.65-25.43 33.433z"/></g><defs><linearGradient id="appaint0_linear" x1="1.008" y1="15.007" x2="29.005" y2="15.007" gradientUnits="userSpaceOnUse"><stop stop-color="#40A3FF"/><stop offset="1" stop-color="#32B5FF"/></linearGradient><linearGradient id="appaint1_linear" x1="4.206" y1="15.02" x2="25.811" y2="15.02" gradientUnits="userSpaceOnUse"><stop stop-color="#40A3FF"/><stop offset="1" stop-color="#32B5FF"/></linearGradient><clipPath id="apclip0"><path transform="translate(1 1)" d="M0 0h28v28H0z"/></clipPath></defs></symbol><symbol viewBox="0 0 30 30" id="catalog-item-9" xmlns="http://www.w3.org/2000/svg"><path d="M15.219 5.989c-4.96 0-8.995 4.035-8.995 8.994 0 4.96 4.035 8.994 8.994 8.994 4.96 0 8.995-4.035 8.995-8.994 0-4.96-4.035-8.994-8.995-8.994zm0 16.309c-4.034 0-7.316-3.282-7.316-7.315 0-4.034 3.282-7.315 7.316-7.315 4.033 0 7.314 3.282 7.314 7.315s-3.281 7.315-7.315 7.315z"/><path d="M15.218 8.901a6.089 6.089 0 00-6.082 6.082 6.089 6.089 0 006.082 6.082 6.089 6.089 0 006.082-6.082 6.089 6.089 0 00-6.082-6.082zm0 10.485a4.407 4.407 0 01-4.402-4.403 4.408 4.408 0 014.402-4.403 4.408 4.408 0 014.403 4.403 4.408 4.408 0 01-4.403 4.402zM4.752 5.26A3.756 3.756 0 001 9.014v6.664h2.912v9.063h1.68V5.26h-.84zm-.84 8.738H2.68V9.013c0-.845.508-1.573 1.233-1.895v6.88zM27.32 5.26v5.825h-1.233V5.261h-1.679v7.504h1.456v11.974h1.68V12.765H29V5.26h-1.68z"/><defs><linearGradient id="aqpaint0_linear" x1="6.224" y1="14.983" x2="24.213" y2="14.983" gradientUnits="userSpaceOnUse"><stop stop-color="#40A3FF"/><stop offset="1" stop-color="#32B5FF"/></linearGradient><linearGradient id="aqpaint1_linear" x1="9.136" y1="14.983" x2="21.3" y2="14.983" gradientUnits="userSpaceOnUse"><stop stop-color="#40A3FF"/><stop offset="1" stop-color="#32B5FF"/></linearGradient><linearGradient id="aqpaint2_linear" x1="1" y1="15" x2="5.592" y2="15" gradientUnits="userSpaceOnUse"><stop stop-color="#40A3FF"/><stop offset="1" stop-color="#32B5FF"/></linearGradient><linearGradient id="aqpaint3_linear" x1="24.408" y1="15" x2="29" y2="15" gradientUnits="userSpaceOnUse"><stop stop-color="#40A3FF"/><stop offset="1" stop-color="#32B5FF"/></linearGradient></defs></symbol><symbol viewBox="0 0 30 30" id="checked" xmlns="http://www.w3.org/2000/svg"><path d="M14.502 17.2l1.765 1.765L26.85 8.383l1.767 1.767-12.35 12.35-7.954-7.955 1.767-1.768 2.656 2.657 1.766 1.765v.001zm.003-3.535l6.19-6.191 1.762 1.762-6.19 6.191-1.762-1.762zm-3.534 7.069L9.205 22.5 1.25 14.545l1.768-1.768 1.766 1.767-.002.001 6.19 6.189z"/><defs><linearGradient id="arpaint0_linear" x1="1.25" y1="14.987" x2="28.617" y2="14.987" gradientUnits="userSpaceOnUse"><stop stop-color="#40A3FF"/><stop offset="1" stop-color="#32B5FF"/></linearGradient></defs></symbol><symbol viewBox="0 0 55 41" id="checked-single" xmlns="http://www.w3.org/2000/svg"><path d="M2 20.26L18.5 37 53 2"/></symbol><symbol viewBox="0 0 22 22" id="close" xmlns="http://www.w3.org/2000/svg"><path opacity=".5" d="M1 1l10 10m10 10L11 11m0 0L21 1 1 21"/></symbol><symbol viewBox="0 0 24 24" id="comment" xmlns="http://www.w3.org/2000/svg"><path d="M5.763 17H20V5H4v13.385L5.763 17zm.692 2L2 22.5V4a1 1 0 011-1h18a1 1 0 011 1v14a1 1 0 01-1 1H6.455z"/></symbol><symbol viewBox="0 0 24 24" id="person" xmlns="http://www.w3.org/2000/svg"><path d="M12 17c3.662 0 6.865 1.575 8.607 3.925l-1.842.871C17.347 20.116 14.847 19 12 19c-2.847 0-5.347 1.116-6.765 2.796l-1.841-.872C5.136 18.574 8.338 17 12 17zm0-15a5 5 0 015 5v3a5 5 0 01-4.783 4.995L12 15a5 5 0 01-5-5V7a5 5 0 014.783-4.995L12 2zm0 2a3 3 0 00-2.995 2.824L9 7v3a3 3 0 005.995.176L15 10V7a3 3 0 00-3-3z"/></symbol><symbol viewBox="0 0 24 24" id="phone" xmlns="http://www.w3.org/2000/svg"><path d="M9.366 10.682a10.555 10.555 0 003.952 3.952l.884-1.238a1 1 0 011.294-.296 11.422 11.422 0 004.583 1.364 1 1 0 01.921.997v4.462a1 1 0 01-.898.995A15.51 15.51 0 0118.5 21C9.94 21 3 14.06 3 5.5c0-.538.027-1.072.082-1.602A1 1 0 014.077 3h4.462a1 1 0 01.997.921A11.422 11.422 0 0010.9 8.504a1 1 0 01-.296 1.294l-1.238.884zm-2.522-.657l1.9-1.357A13.41 13.41 0 017.647 5H5.01c-.006.166-.009.333-.009.5C5 12.956 11.044 19 18.5 19c.167 0 .334-.003.5-.01v-2.637a13.413 13.413 0 01-3.668-1.097l-1.357 1.9a12.445 12.445 0 01-1.588-.75l-.058-.033a12.556 12.556 0 01-4.702-4.702l-.033-.058a12.444 12.444 0 01-.75-1.588z"/></symbol><symbol viewBox="0 0 64 42" id="quote-ico" xmlns="http://www.w3.org/2000/svg"><path fill-rule="evenodd" clip-rule="evenodd" d="M33.993 14.219a13.42 13.42 0 011.118-5.499 13.304 13.304 0 013.264-4.544 13.962 13.962 0 014.623-3.121A13.852 13.852 0 0148.461.002c4.78 0 8.585 1.74 11.419 5.22a17.655 17.655 0 014.112 11.866C63.992 25.698 56.56 34 41.694 42l-2.125-3.26c5.044-4.092 7.566-7.396 7.566-9.912 0-.784-1.061-1.568-3.185-2.349-3.188-1.13-5.357-2.217-6.505-3.26-2.301-1.915-3.452-4.915-3.452-9zm-33.99 0A14.068 14.068 0 01.99 8.792a13.96 13.96 0 012.995-4.616 14.117 14.117 0 014.69-3.135A14.006 14.006 0 0114.206 0c4.778 0 8.584 1.74 11.418 5.22a17.315 17.315 0 014.245 11.867C29.868 25.698 22.436 34 7.57 42l-2.39-3.26c5.224-4.092 7.836-7.396 7.836-9.912 0-.785-1.15-1.568-3.451-2.349-3.1-1.13-5.224-2.217-6.374-3.26-2.127-1.915-3.19-4.915-3.189-9z"/><defs><linearGradient id="axpaint0_linear" x1="64" y1="21" x2="0" y2="21" gradientUnits="userSpaceOnUse"><stop stop-color="#40A3FF"/><stop offset="1" stop-color="#32B5FF"/></linearGradient></defs></symbol><symbol viewBox="0 0 20 20" id="social-1" xmlns="http://www.w3.org/2000/svg"><path d="M6.667 10a3.333 3.333 0 116.667 0 3.333 3.333 0 01-6.667 0zm-1.802 0a5.135 5.135 0 1010.27 0 5.135 5.135 0 00-10.27 0zm9.274-5.338a1.2 1.2 0 101.2-1.2 1.2 1.2 0 00-1.2 1.2zM5.96 18.14c-.975-.045-1.505-.207-1.857-.344a3.11 3.11 0 01-1.15-.748 3.086 3.086 0 01-.748-1.15c-.137-.352-.3-.882-.344-1.857-.049-1.054-.058-1.37-.058-4.04 0-2.671.01-2.987.058-4.042.044-.975.208-1.504.344-1.857.182-.467.398-.8.748-1.15.35-.35.682-.567 1.15-.748.352-.138.882-.3 1.857-.344C7.014 1.81 7.331 1.8 10 1.8c2.67 0 2.987.01 4.042.059.975.044 1.504.208 1.857.344.467.18.8.398 1.15.748.35.35.566.683.748 1.15.137.352.3.882.344 1.857.049 1.055.058 1.37.058 4.041 0 2.67-.01 2.986-.058 4.041-.044.975-.207 1.505-.344 1.857a3.1 3.1 0 01-.748 1.15 3.11 3.11 0 01-1.15.748c-.352.137-.882.3-1.857.344-1.054.048-1.371.058-4.042.058-2.67 0-2.986-.01-4.04-.058zM5.877.06C4.813.11 4.085.279 3.45.526a4.905 4.905 0 00-1.77 1.152A4.886 4.886 0 00.525 3.45C.278 4.086.11 4.813.061 5.877.01 6.943 0 7.284 0 10s.011 3.057.06 4.123c.049 1.064.218 1.791.465 2.427a4.888 4.888 0 001.154 1.771 4.916 4.916 0 001.771 1.154c.637.247 1.363.416 2.427.464C6.944 19.988 7.285 20 10 20c2.716 0 3.057-.011 4.123-.06 1.065-.049 1.792-.218 2.428-.465a4.918 4.918 0 001.771-1.154 4.9 4.9 0 001.154-1.77c.247-.637.417-1.364.464-2.428.049-1.067.06-1.407.06-4.123s-.011-3.057-.06-4.123c-.048-1.064-.217-1.792-.464-2.427a4.917 4.917 0 00-1.154-1.772 4.893 4.893 0 00-1.77-1.153c-.637-.247-1.364-.417-2.428-.464C13.058.012 12.717 0 10.001 0S6.944.011 5.877.06z"/></symbol><symbol viewBox="0 0 23 25" id="social-2" xmlns="http://www.w3.org/2000/svg"><path d="M20.476 2.812c-.584-.538-2.951-2.259-8.228-2.283 0 0-6.22-.377-9.251 2.405C1.309 4.622.714 7.088.653 10.154c-.061 3.06-.141 8.798 5.39 10.354h.004l-.004 2.372s-.033.962.599 1.155c.763.236 1.216-.495 1.947-1.282.4-.434.952-1.066 1.372-1.552 3.782.316 6.691-.41 7.021-.518.764-.25 5.088-.802 5.79-6.54.727-5.904-.353-9.643-2.296-11.331zm.642 10.916c-.595 4.79-4.098 5.092-4.744 5.3-.274.09-2.83.726-6.045.514 0 0-2.395 2.89-3.14 3.64-.118.118-.255.165-.345.141-.127-.033-.165-.184-.16-.405 0-.32.019-3.947.019-3.947-.005 0-.005 0 0 0-4.682-1.297-4.409-6.182-4.357-8.738.052-2.555.533-4.653 1.961-6.063 2.56-2.32 7.847-1.976 7.847-1.976 4.46.019 6.596 1.363 7.091 1.81 1.646 1.415 2.485 4.787 1.872 9.724z"/><path d="M14.422 10.323a.3.3 0 01-.297-.283c-.052-1.014-.528-1.509-1.5-1.56a.3.3 0 01.034-.6c1.282.071 1.999.807 2.065 2.127a.293.293 0 01-.283.311c-.01.005-.014.005-.019.005z"/><path d="M15.95 10.832h-.005a.3.3 0 01-.293-.306c.024-1.019-.268-1.844-.89-2.523-.619-.679-1.472-1.046-2.599-1.127a.297.297 0 01-.274-.32.297.297 0 01.321-.274c1.273.095 2.278.538 2.994 1.32.722.788 1.07 1.773 1.047 2.938a.302.302 0 01-.302.293z"/><path d="M17.515 11.445a.296.296 0 01-.297-.297c-.014-1.825-.537-3.216-1.603-4.258-1.052-1.028-2.386-1.551-3.956-1.565a.3.3 0 010-.599c1.73.014 3.201.594 4.366 1.735 1.17 1.141 1.768 2.716 1.787 4.678a.295.295 0 01-.297.306c.005 0 .005 0 0 0zm-4.819 2.57s.42.038.646-.24l.438-.552c.213-.274.727-.448 1.226-.17.278.156.783.467 1.094.698a28.79 28.79 0 011.019.816c.325.273.4.674.179 1.103v.01c-.226.4-.533.778-.915 1.127-.005 0-.005.004-.01.004-.315.264-.626.415-.928.448-.038.01-.08.01-.137.01-.132 0-.264-.02-.396-.062l-.01-.014c-.471-.132-1.254-.462-2.555-1.183a15.165 15.165 0 01-2.15-1.42 11.002 11.002 0 01-1-.89l-.033-.034-.033-.033-.033-.033a11.89 11.89 0 01-.858-.966 14.916 14.916 0 01-1.42-2.15C6.1 9.176 5.77 8.393 5.638 7.927l-.014-.01a1.284 1.284 0 01-.061-.396c0-.056 0-.099.009-.137.038-.306.189-.613.448-.928 0-.005.005-.005.005-.01a4.494 4.494 0 011.127-.915h.009c.424-.221.825-.146 1.103.18 0 0 .57.683.816 1.018.231.316.542.816.698 1.094.278.5.104 1.014-.17 1.226l-.551.438c-.279.227-.24.646-.24.646s.815 3.103 3.88 3.881z"/></symbol><symbol viewBox="0 0 70 70" id="zoom" xmlns="http://www.w3.org/2000/svg"><path d="M68.957 63.52l-13.52-13.504a30.94 30.94 0 00-3.903-42.248A31.02 31.02 0 009.079 9.07a30.944 30.944 0 00-1.303 42.407 31.024 31.024 0 0042.294 3.9l13.521 13.505c.688.7 1.623 1.1 2.605 1.119a3.703 3.703 0 002.605-1.119 3.773 3.773 0 00.156-5.36zm-37.824-9.159a23.307 23.307 0 01-12.938-3.92A23.269 23.269 0 019.617 40a23.239 23.239 0 015.048-25.352 23.313 23.313 0 0125.38-5.043 23.283 23.283 0 0110.452 8.568A23.245 23.245 0 0154.422 31.1a23.276 23.276 0 01-6.83 16.441 23.328 23.328 0 01-16.46 6.821z"/></symbol></svg>